# xmcd CD database file
#
# Track frame offsets:
#	150
#	10202
#	22525
#	35440
#	45332
#	55780
#	65070
#	75790
#	84547
#	89745
#	100410
#	110655
#	122187
#	133250
#	144600
#	155565
#	167640
#	179380
#	189600
#	202030
#	215315
#	226210
#	238022
#	248885
#	258457
#	269520
#	280527
#	291117
#	303360
#	315110
#
# Disc length: 4317 seconds
#
# Revision: 1
# Processed by: cddbd v1.5.2PL0 Copyright (c) Steve Scherf et al.
# Submitted via: CDex 1.70beta2
#
DISCID=a210db1e
DTITLE=Tommy Collins - Leonard - Disc 5
DYEAR=1992
DGENRE=Country
TTITLE0=Big Dummy
TTITLE1=Shindig In The Barn
TTITLE2=There's No Girl In My Life Anymore
TTITLE3=Skinny
TTITLE4=I'm Not Looking For An Angel
TTITLE5=Don't Wipe The Tears That You Cry
TTITLE6=Birmingham
TTITLE7=Put Me In Irons, Lock Me Up (And Throw Away The Key)
TTITLE8=You Better Not Do That
TTITLE9=Sam Hill
TTITLE10=I Got Mine
TTITLE11=It's Too Much Like Lonesome
TTITLE12=Whatcha Gonna Do Now
TTITLE13=No Love Have I
TTITLE14=Wine Take Me Away
TTITLE15=High On A Hilltop
TTITLE16=When Did Right Become Wrong
TTITLE17=General Delivery U. S. A.
TTITLE18=Roll Truck, Roll
TTITLE19=If That's The Fashion
TTITLE20=Piedras Negras
TTITLE21=Laura (What's He Got That I Ain't Got)
TTITLE22=Branded Man
TTITLE23=Cincinnati Ohio
TTITLE24=Break My Mind
TTITLE25=I Made A Prison Band
TTITLE26=The Best Thing I've Done In My Life
TTITLE27=Woman You Have Been Told
TTITLE28=Sunny Side Of Life
TTITLE29=He's Gonna Have To Catch Me First
EXTD=YEAR: 1992
EXTT0=
EXTT1=
EXTT2=
EXTT3=
EXTT4=
EXTT5=
EXTT6=
EXTT7=
EXTT8=
EXTT9=
EXTT10=
EXTT11=
EXTT12=
EXTT13=
EXTT14=
EXTT15=
EXTT16=
EXTT17=
EXTT18=
EXTT19=
EXTT20=
EXTT21=
EXTT22=
EXTT23=
EXTT24=
EXTT25=
EXTT26=
EXTT27=
EXTT28=
EXTT29=
PLAYORDER=
